<?xml version="1.0" standalone="no"?>
<!DOCTYPE svg PUBLIC "-//W3C//DTD SVG 20010904//EN"
 "http://www.w3.org/TR/2001/REC-SVG-20010904/DTD/svg10.dtd">
<svg version="1.0" xmlns="http://www.w3.org/2000/svg"
 width="718.000000pt" height="1280.000000pt" viewBox="0 0 718.000000 1280.000000"
 preserveAspectRatio="xMidYMid meet">
<metadata>
Created by potrace 1.15, written by Peter Selinger 2001-2017
</metadata>
<g transform="translate(0.000000,1280.000000) scale(0.100000,-0.100000)"
fill="#000000" stroke="none">
<path d="M3370 12794 c-19 -2 -87 -9 -150 -15 -1051 -99 -2031 -694 -2627
-1594 -459 -693 -674 -1584 -563 -2330 180 -1204 1094 -3603 2643 -6935 330
-710 906 -1910 917 -1910 11 0 587 1200 917 1910 1318 2835 2200 5054 2523
6350 155 621 182 978 110 1470 -122 834 -546 1611 -1185 2169 -554 484 -1211
776 -1950 867 -122 15 -556 27 -635 18z m560 -2027 c631 -150 1080 -605 1222
-1239 20 -90 23 -130 23 -313 0 -164 -4 -230 -18 -300 -132 -647 -615 -1132
-1265 -1267 -155 -32 -449 -32 -604 0 -650 135 -1133 620 -1265 1267 -28 138
-25 473 5 611 30 139 64 239 127 371 214 450 623 771 1111 872 143 30 141 30
359 26 171 -3 215 -7 305 -28z"/>
</g>
</svg>
